# AST/ASF file generated using VICON BodyLanguage
# -----------------------------------------------
:version 1.10
:name VICON
:units
  mass 1.0
  length 0.45
  angle deg
:documentation
   .ast/.asf automatically generated from VICON data using
   VICON BodyBuilder and BodyLanguage model FoxedUp or BRILLIANT.MOD
:root
   order TX TY TZ RX RY RZ
   axis XYZ
   position 0 0 0  
   orientation 0 0 0 
:bonedata
  begin
     id 1 
     name lhipjoint
     direction 0.521689 -0.742065 0.420928 
     length 2.47002 
     axis 0 0 0  XYZ
  end
  begin
     id 2 
     name lfemur
     direction 0.34202 -0.939693 0  
     length 7.24654  
     axis 0 0 20  XYZ
    dof rx ry rz
    limits (-160.0 20.0)
           (-70.0 70.0)
           (-60.0 70.0)
  end
  begin
     id 3 
     name ltibia
     direction 0.34202 -0.939693 0   
     length 8.04849   
     axis 0 0 20   XYZ
    dof rx
    limits (-10.0 170.0)
  end
  begin
     id 4 
     name lfoot
     direction 0.0745411 -0.2048 0.975961   
     length 1.72367   
     axis -90 7.62852e-016 20   XYZ
    dof rx rz
    limits (-45.0 90.0)
           (-70.0 20.0)
  end
  begin
     id 5 
     name ltoes
     direction 1.53556e-011 -4.21901e-011 1   
     length 0.87311   
     axis -90 7.62852e-016 20   XYZ
    dof rx
    limits (-90.0 20.0)
  end
  begin
     id 6 
     name rhipjoint
     direction -0.52849 -0.738415 0.418857   
     length 2.48223  
     axis 0 0 0  XYZ 
  end
  begin
     id 7 
     name rfemur
     direction -0.34202 -0.939693 0   
     length 7.15571   
     axis 0 0 -20   XYZ
    dof rx ry rz
    limits (-160.0 20.0)
           (-70.0 70.0)
           (-70.0 60.0)
  end
  begin
     id 8 
     name rtibia
     direction -0.34202 -0.939693 0   
     length 7.81659   
     axis 0 0 -20   XYZ
    dof rx
    limits (-10.0 170.0)
 end
 begin
     id 9 
     name rfoot
     direction -0.0917348 -0.252039 0.963359   
     length 1.84382  
     axis -90 -7.62852e-016 -20   XYZ
    dof rx rz
    limits (-45.0 90.0)
           (-20.0 70.0)
  end
  begin
     id 10 
     name rtoes
     direction -1.53551e-011 -4.21879e-011 1   
     length 0.927771   
     axis -90 -7.62852e-016 -20   XYZ
    dof rx
    limits (-90.0 20.0)
  end
  begin
     id 11 
     name lowerback
     direction 0.00583058 0.999822 0.0179296   
     length 2.1429   
     axis 0 0 0   XYZ
    dof rx ry rz
    limits (-20.0 45.0)
           (-30.0 30.0)
           (-30.0 30.0)
  end
  begin
     id 12 
     name upperback
     direction -0.0137999 0.999752 -0.0175071   
     length 2.14252   
     axis 0 0 0   XYZ
    dof rx ry rz
    limits (-20.0 45.0)
           (-30.0 30.0)
           (-30.0 30.0)
  end
  begin
     id 13 
     name thorax
     direction -0.0158036 0.99955 -0.0254909   
     length 2.1383   
     axis 0 0 0   XYZ
    dof rx ry rz
    limits (-20.0 45.0)
           (-30.0 30.0)
           (-30.0 30.0)
  end
  begin
     id 14 
     name lowerneck
     direction -0.0101179 0.999403 -0.0330262   
     length 1.65808   
     axis 0 0 0   XYZ
    dof rx ry rz
    limits (-20.0 45.0)
           (-30.0 30.0)
           (-30.0 30.0)
  end
  begin
     id 15 
     name upperneck
     direction 0.0497734 0.995978 -0.074501   
     length 1.5897   
     axis 0 0 0   XYZ
    dof rx ry rz
    limits (-20.0 45.0)
           (-30.0 30.0)
           (-30.0 30.0)
  end
  begin
     id 16
     name head
     direction 0.0189524 0.999519 -0.0245438  
     length 1.74024  
     axis 0 0 0   XYZ
    dof rx ry rz
    limits (-20.0 45.0)
           (-30.0 30.0)
           (-30.0 30.0)
  end
  begin
     id 17 
     name lclavicle
     direction 0.945604 0.324422 0.0241537  
     length 3.59089  
     axis 0 0 0   XYZ
    dof ry rz
    limits (-20.0 10.0)
           (0.0 20.0)
  end
  begin
     id 18 
     name lhumerus
     direction 1 -4.48964e-011 -2.63524e-027   
     length 5.2391   
     axis 180 -30 -90   XYZ
    dof rx ry rz
    limits (-60.0 90.0)
           (-90.0 90.0)
           (-90.0 90.0)
  end
  begin
     id 19
     name lradius
     direction 1 -4.48969e-011 3.86978e-028   
     length 3.31467   
     axis 180 -30 -90   XYZ
    dof rx
    limits (-10.0 170.0)
  end
  begin
     id 20
     name lwrist
     direction 1 -4.48963e-011 7.20928e-028   
     length 1.65734   
     axis -5.52449e-016 90 90   XYZ
    dof ry
    limits (-180.0 0.0)
 end
  begin
     id 21 
     name lhand
     direction 1 -4.48964e-011 1.44186e-027   
     length 0.9659   
     axis -9.20027e-016 90 90   XYZ
    dof rx rz
    limits (-90.0 90.0)
           (-45.0 45.0)
  end
  begin
     id 22 
     name lfingers
     direction 1 -4.48965e-011 2.88371e-027   
     length 0.778733   
     axis -1.84005e-015 90 90   XYZ
    dof rx
    limits (0.0 90.0)
  end
  begin
     id 23
     name lthumb
     direction 0.707107 -6.34931e-011 0.707107   
     length 1.11811   
     axis -90 45 2.85299e-015   XYZ
    dof rx rz
    limits (-45.0 45.0)
           (-45.0 45.0)
  end
  begin
     id 24 
     name rclavicle
     direction -0.923762 0.370785 0.0958234   
     length 3.54196  
     axis 0 0 0   XYZ 
    dof ry rz
    limits (-10.0 20.0)
           (-20.0 0.0)
  end
  begin
     id 25 
     name rhumerus
     direction -1 -4.48966e-011 1.18702e-017  
     length 5.30252   
     axis 180 30 90   XYZ
    dof rx ry rz
    limits (-90.0 60.0)
           (-90.0 90.0)
           (-90.0 90.0)
  end
  begin
     id 26 
     name rradius
     direction -1 -4.48966e-011 4.46736e-027   
     length 3.67875   
     axis 180 30 90   XYZ
    dof rx
    limits (-10.0 170.0)
  end
  begin
     id 27 
     name rwrist
     direction -1 -4.48966e-011 7.20928e-028   
     length 1.83937   
     axis -5.52449e-016 -90 -90   XYZ
    dof ry
    limits (-180.0 0.0)
  end
  begin
     id 28
     name rhand
     direction -1 -4.48973e-011 1.44186e-027   
     length 0.594811   
     axis -9.20027e-016 -90 -90   XYZ
    dof rx rz
    limits (-90.0 90.0)
           (-45.0 45.0)
  end
  begin
     id 29
     name rfingers
     direction -1 -4.48963e-011 2.88371e-027   
     length 0.479552   
     axis -1.84005e-015 -90 -90   XYZ
    dof rx
    limits (0.0 90.0)
  end
  begin
     id 30
     name rthumb
     direction -0.707107 -6.34932e-011 0.707107   
     length 0.688544   
     axis -90 -45 -2.85299e-015   XYZ
    dof rx rz
    limits (-45.0 45.0)
           (-45.0 45.0)
  end
:hierarchy
  begin
    root lhipjoint rhipjoint lowerback
    lhipjoint lfemur
    lfemur ltibia
    ltibia lfoot
    lfoot ltoes
    rhipjoint rfemur
    rfemur rtibia
    rtibia rfoot
    rfoot rtoes
    lowerback upperback
    upperback thorax
    thorax lowerneck lclavicle rclavicle
    lowerneck upperneck
    upperneck head
    lclavicle lhumerus
    lhumerus lradius
    lradius lwrist
    lwrist lhand lthumb
    lhand lfingers
    rclavicle rhumerus
    rhumerus rradius
    rradius rwrist
    rwrist rhand rthumb
    rhand rfingers
  end

#!OML:ASF E:\acrobat2\Project_11_07_03\Capture day 1\Session 1\Acrobat.ASF
:FULLY-SPECIFIED
:DEGREES
630
root 8.82532 14.0878 -15.8037 188.055 -1.83144 -177.866
lowerback -8.16499 0.0143957 0.447254
upperback -3.25367 -0.255926 -0.0732241
thorax 1.21312 -0.234788 -0.351945
lowerneck 2.70297 -2.26751 -0.683142
upperneck -5.77037 -2.94021 4.70738
head -2.20378 -1.6367 1.69897
rclavicle -6.4605e-016 -5.1684e-015
rhumerus -41.2103 5.58233 -85.5986
rradius 32.596
rwrist 3.21757
rhand 1.02667 -37.5227
rfingers 7.12502
rthumb 26.5734 -425.678
lclavicle -6.4605e-016 -5.1684e-015
lhumerus -36.2018 -26.1607 92.1205
lradius 24.4302
lwrist 12.4625
lhand -5.3191 348.747
lfingers 7.12502
lthumb 20.4868 17.6862
rfemur 196.174 -227.628 -189.889
rtibia -7.03663
rfoot -64.7231 -20.1646
rtoes 18.192
lfemur 8.74161 -43.6072 22.6908
ltibia -9.27323
lfoot -53.4899 -21.1581
ltoes 55.1283
631
root 8.82716 14.089 -15.7928 188.076 -1.71569 -177.823
lowerback -8.14532 0.0563231 0.50346
upperback -3.28044 -0.206527 -0.0787268
thorax 1.17497 -0.211689 -0.384555
lowerneck 2.37671 -2.36138 -0.496847
upperneck -5.28242 -3.07582 4.46283
head -1.98557 -1.68673 1.57323
rclavicle 2.11209e-015 -7.15625e-015
rhumerus -41.2449 6.32213 -85.9947
rradius 32.6298
rwrist 3.65606
rhand 0.700251 -37.8545
rfingers 7.12502
rthumb 26.2609 -426.057
lclavicle 2.11209e-015 -7.15625e-015
lhumerus -36.1476 -26.4177 92.1784
lradius 24.4256
lwrist 12.3784
lhand -5.15071 348.837
lfingers 7.12502
lthumb 20.6486 17.7589
rfemur 195.853 -227.584 -190.1
rtibia -6.94644
rfoot -64.668 -19.7385
rtoes 18.913
lfemur 8.73057 -43.4647 22.7672
ltibia -9.25795
lfoot -53.3539 -21.255
ltoes 55.1886
632
root 8.82525 14.0895 -15.7884 188.037 -1.58321 -177.774
lowerback -8.14753 0.119108 0.623307
upperback -3.3175 -0.135539 -0.0961832
thorax 1.13852 -0.178999 -0.463397
lowerneck 2.83006 -2.24725 -0.657438
upperneck -5.38456 -2.91105 4.6855
head -2.10151 -1.61273 1.68129
rclavicle -9.93923e-017 2.78299e-015
rhumerus -41.3977 6.90559 -86.3237
rradius 32.6771
rwrist 4.197
rhand 0.326796 -37.7228
rfingers 7.12502
rthumb 25.9033 -425.978
lclavicle -9.93923e-017 2.78299e-015
lhumerus -36.1459 -26.4487 92.1989
lradius 24.3623
lwrist 12.2195
lhand -4.931 348.732
lfingers 7.12502
lthumb 20.8597 17.6305
rfemur 195.682 -227.504 -190.221
rtibia -6.91862
rfoot -64.4802 -19.287
rtoes 19.7854
lfemur 8.89812 -43.3893 22.694
ltibia -9.26118
lfoot -53.3245 -21.3034
ltoes 55.1939
633
root 8.82295 14.0899 -15.7829 188.017 -1.48436 -177.833
lowerback -8.13892 0.171325 0.635227
upperback -3.34696 -0.0689518 -0.133033
thorax 1.10416 -0.147435 -0.501994
lowerneck 3.01103 -2.17706 -0.793403
upperneck -5.34367 -2.81379 4.86013
head -2.12094 -1.56715 1.76254
rclavicle -1.93815e-015 7.95139e-016
rhumerus -41.4085 7.45464 -86.6145
rradius 32.5849
rwrist 4.63161
rhand -0.122724 -37.7142
rfingers 7.12502
rthumb 25.4728 -426.032
lclavicle -1.93815e-015 7.95139e-016
lhumerus -36.0421 -26.4734 92.209
lradius 24.2286
lwrist 12.0725
lhand -4.69768 348.57
lfingers 7.12502
lthumb 21.0839 17.4433
rfemur 195.402 -227.096 -190.607
rtibia -6.87625
rfoot -64.0191 -18.5517
rtoes 21.0492
lfemur 8.97252 -43.2608 22.5661
ltibia -9.24545
lfoot -53.2584 -21.2712
ltoes 55.2003
634
root 8.82447 14.0885 -15.7774 188.021 -1.39161 -177.946
lowerback -8.13886 0.190144 0.511779
upperback -3.36096 -0.0358023 -0.149236
thorax 1.09005 -0.130826 -0.446351
lowerneck 2.99839 -2.12882 -0.912073
upperneck -5.19638 -2.75288 4.94453
head -2.07043 -1.53331 1.80608
rclavicle -2.11209e-015 5.1684e-015
rhumerus -41.2618 8.14166 -86.9469
rradius 32.3255
rwrist 4.95796
rhand -0.475542 -38.0681
rfingers 7.12502
rthumb 25.1348 -426.434
lclavicle -2.11209e-015 5.1684e-015
lhumerus -35.8857 -26.3748 92.147
lradius 24.1954
lwrist 11.8216
lhand -4.3902 348.737
lfingers 7.12502
lthumb 21.3792 17.5774
rfemur 195.103 -226.739 -191.047
rtibia -6.82246
rfoot -63.6329 -17.9417
rtoes 22.0109
lfemur 9.00238 -43.156 22.423
ltibia -9.23997
lfoot -53.1495 -21.4033
ltoes 55.3478
635
root 8.82323 14.086 -15.7748 188.007 -1.32031 -177.972
lowerback -8.145 0.21072 0.503994
upperback -3.38946 -0.0108998 -0.149129
thorax 1.06432 -0.119792 -0.43962
lowerneck 3.0623 -2.10624 -0.89628
upperneck -5.04516 -2.72387 4.85698
head -2.03432 -1.51262 1.77235
rclavicle -4.24902e-015 -3.18055e-015
rhumerus -41.196 8.79502 -87.2804
rradius 32.0699
rwrist 5.37617
rhand -0.694011 -38.3837
rfingers 7.12502
rthumb 24.9255 -426.778
lclavicle -4.24902e-015 -3.18055e-015
lhumerus -35.8446 -26.2327 92.1049
lradius 24.2926
lwrist 11.6185
lhand -4.17856 348.959
lfingers 7.12502
lthumb 21.5825 17.7768
rfemur 195.014 -226.676 -191.186
rtibia -6.846
rfoot -63.4796 -17.9188
rtoes 21.8775
lfemur 9.19733 -43.3945 22.2181
ltibia -9.28462
lfoot -53.4499 -21.4917
ltoes 55.4012
636
root 8.818 14.0841 -15.7716 187.966 -1.27666 -177.903
lowerback -8.13088 0.227842 0.643909
upperback -3.40566 -0.000324667 -0.126115
thorax 1.04012 -0.116153 -0.493535
lowerneck 3.01006 -2.08893 -0.836578
upperneck -4.79959 -2.70496 4.71514
head -1.94704 -1.49359 1.7094
rclavicle 4.72114e-015 -9.93923e-015
rhumerus -41.1456 9.33078 -87.5363
rradius 31.9025
rwrist 5.82062
rhand -0.925447 -38.5774
rfingers 7.12502
rthumb 24.7037 -427.003
lclavicle 4.72114e-015 -9.93923e-015
lhumerus -35.8182 -26.1164 92.1118
lradius 24.3542
lwrist 11.5746
lhand -4.24949 348.791
lfingers 7.12502
lthumb 21.5144 17.6157
rfemur 195.067 -226.768 -191.077
rtibia -6.87834
rfoot -63.4788 -18.0476
rtoes 21.7028
lfemur 9.44909 -43.726 22.0737
ltibia -9.35438
lfoot -53.8632 -21.4781
ltoes 55.2752
637
root 8.81311 14.0823 -15.7681 187.873 -1.27631 -177.792
lowerback -8.07064 0.238429 0.840888
upperback -3.38338 0.00239367 -0.0982871
thorax 1.03011 -0.114634 -0.575224
lowerneck 2.95052 -2.04485 -0.884456
upperneck -4.62535 -2.65051 4.72301
head -1.88083 -1.46147 1.71453
rclavicle -4.43538e-015 0
rhumerus -41.0682 9.6526 -87.6718
rradius 31.7902
rwrist 6.26076
rhand -1.10999 -38.5717
rfingers 7.12502
rthumb 24.5268 -427.021
lclavicle -4.43538e-015 0
lhumerus -35.7566 -25.9836 92.0733
lradius 24.452
lwrist 11.5626
lhand -4.39634 348.659
lfingers 7.12502
lthumb 21.3733 17.5001
rfemur 195.255 -226.928 -190.789
rtibia -6.87707
rfoot -63.6103 -18.0368
rtoes 21.8978
lfemur 9.54682 -43.596 22.1638
ltibia -9.4129
lfoot -53.6624 -21.3704
ltoes 55.1635
638
root 8.80691 14.0809 -15.7658 187.791 -1.31695 -177.781
lowerback -8.05842 0.254265 0.956528
upperback -3.35147 0.0185423 -0.109938
thorax 1.05667 -0.105758 -0.650784
lowerneck 2.99714 -2.04371 -0.923056
upperneck -4.56945 -2.65013 4.70628
head -1.87081 -1.4587 1.71571
rclavicle -8.82107e-016 -1.07344e-014
rhumerus -40.9992 9.77767 -87.735
rradius 31.6089
rwrist 6.65076
rhand -1.49315 -38.3261
rfingers 7.12502
rthumb 24.1594 -426.825
lclavicle -8.82107e-016 -1.07344e-014
lhumerus -35.6323 -25.8293 91.9868
lradius 24.5948
lwrist 11.5769
lhand -4.49483 348.739
lfingers 7.12502
lthumb 21.2787 17.5908
rfemur 195.432 -226.893 -190.678
rtibia -6.92902
rfoot -63.5807 -18.0154
rtoes 21.8552
lfemur 9.49267 -43.2106 22.2534
ltibia -9.41795
lfoot -53.1447 -21.2046
ltoes 55.1568
